<svg width="128" height="128" viewBox="0 0 128 128" fill="none" xmlns="http://www.w3.org/2000/svg">
  <defs>
    <linearGradient id="box" x1="31" y1="32" x2="98" y2="108" gradientUnits="userSpaceOnUse">
      <stop stop-color="#ff6558"/>
      <stop offset="0.48" stop-color="#f02f54"/>
      <stop offset="1" stop-color="#ad1749"/>
    </linearGradient>
    <linearGradient id="ribbon" x1="45" y1="23" x2="82" y2="109" gradientUnits="userSpaceOnUse">
      <stop stop-color="#ffe766"/>
      <stop offset="0.48" stop-color="#ffb72b"/>
      <stop offset="1" stop-color="#f27b17"/>
    </linearGradient>
    <linearGradient id="ticket" x1="18" y1="56" x2="95" y2="92" gradientUnits="userSpaceOnUse">
      <stop stop-color="#fff6df"/>
      <stop offset="1" stop-color="#ffd48a"/>
    </linearGradient>
    <filter id="shadow" x="8" y="14" width="111" height="112" filterUnits="userSpaceOnUse" color-interpolation-filters="sRGB">
      <feDropShadow dx="0" dy="10" stdDeviation="7" flood-color="#32110a" flood-opacity="0.35"/>
    </filter>
  </defs>
  <g filter="url(#shadow)">
    <path d="M31 50h70v56a8 8 0 0 1-8 8H39a8 8 0 0 1-8-8V50Z" fill="url(#box)"/>
    <path d="M25 41a7 7 0 0 1 7-7h68a7 7 0 0 1 7 7v17H25V41Z" fill="#ff734d"/>
    <path d="M56 34h20v80H56V34Z" fill="url(#ribbon)"/>
    <path d="M28 58h78v10H28V58Z" fill="#c91f48" opacity=".42"/>
    <path d="M54.5 34.5c-9.7-15.1-26.1-9-22.8 4.2 2.7 10.6 15.1 10.7 25.9 6.8" stroke="#ffd95d" stroke-width="8" stroke-linecap="round"/>
    <path d="M77.5 34.5c9.7-15.1 26.1-9 22.8 4.2-2.7 10.6-15.1 10.7-25.9 6.8" stroke="#ffd95d" stroke-width="8" stroke-linecap="round"/>
    <path d="M18 70.5c0-4.7 3.8-8.5 8.5-8.5H83l7 8-7 8 7 8-7 8H26.5A8.5 8.5 0 0 1 18 85.5v-15Z" fill="url(#ticket)"/>
    <path d="M34 76h28M34 86h18" stroke="#8b3e1e" stroke-width="5" stroke-linecap="round"/>
    <path d="M77 78h9M81.5 73.5v9" stroke="#f05a28" stroke-width="5" stroke-linecap="round"/>
  </g>
</svg>
